<?xml version="1.0" encoding="utf-8"?><svg xmlns="http://www.w3.org/2000/svg" xmlns:xlink="http://www.w3.org/1999/xlink"><style>:root>svg{display:none}:root>svg:target{display:block}</style><svg viewBox="0 0 24 24" fill="currentColor" xml:space="preserve" id="email" xmlns="http://www.w3.org/2000/svg"><path d="M16.7 14.4V9.7L14 12.1zM11.9 14l-1.3-1.1-3.3 2.8h9.1l-3.2-2.8zM16.4 8.4H7.3l4.6 4.1zM7 9.7v4.7l2.7-2.3z"/><path d="M18.9 3h-14c-1.1 0-2 .9-2 2v14c0 1.1.9 2 2 2h14c1.1 0 2-.9 2-2V5c0-1.1-.9-2-2-2zm-1 13.8h-12V7.2H18v9.6z"/></svg><svg viewBox="0 0 78 36" style="enable-background:new 0 0 78 36" xml:space="preserve" fill="currentColor" id="helsinki" xmlns="http://www.w3.org/2000/svg"><path d="M75.8 2.2V23c0 3.9-3.2 7.2-7.2 7.2H46.1c-2.6 0-5.2 1-7.1 2.7-2-1.8-4.5-2.7-7.1-2.7H9.4c-4 0-7.2-3.2-7.2-7.2V2.2h73.6zM40.2 34.8c1.6-1.6 3.7-2.5 5.9-2.5h22.4c5.2 0 9.4-4.2 9.4-9.4V0H0v23c0 5.2 4.2 9.4 9.4 9.4h22.5c2.2 0 4.4.9 5.9 2.5L39 36l1.2-1.2z"/><path d="M67.3 11.7c0 .7-.5 1.2-1.2 1.2s-1.2-.5-1.2-1.2.5-1.2 1.2-1.2 1.2.5 1.2 1.2M65 21.4h2.1v-7.7H65v7.7zm-4.2-4.6 2.8 4.6h-2.3l-1.9-3.1-1 1.3v1.8h-2.1v-11h2.1v5.1c0 .9-.1 1.9-.1 1.9s.5-.8.9-1.4l1.6-2.2h2.5l-2.5 3zm-6.7-.3c0-1.9-.9-2.9-2.4-2.9-1.3 0-1.9.7-2.3 1.4l.1-1.3h-2.1v7.7h2.1v-4.5c0-.9.5-1.5 1.3-1.5s1.2.5 1.2 1.6v4.5h2.1v-5zm-8.8-4.8c0 .7-.5 1.2-1.2 1.2s-1.2-.5-1.2-1.2.5-1.2 1.2-1.2 1.2.5 1.2 1.2M43 21.4h2.1v-7.7H43v7.7zm-3.9-2.1c0-.6-.8-.7-1.8-1-1.1-.3-2.6-.9-2.6-2.3s1.4-2.4 3-2.4c1.5 0 2.9.7 3.5 1.7l-1.8 1c-.2-.7-.8-1.2-1.6-1.2-.5 0-1 .2-1 .7 0 .6 1 .6 2.1 1 1.2.4 2.3.9 2.3 2.3 0 1.5-1.4 2.4-3.1 2.4-1.8 0-3.2-.8-3.8-2l1.9-1c.2.8.9 1.5 1.9 1.5.6.1 1-.2 1-.7m-7-8.8H30v8.8c0 .8.2 1.4.5 1.7.3.4.9.5 1.6.5.3 0 .5 0 .8-.1.3-.1.5-.1.6-.2l.2-1.4c-.2.1-.3.1-.4.1h-.4c-.3 0-.4-.1-.5-.2-.1-.1-.2-.4-.2-.8v-8.4zm-7.3 4.7c-.8 0-1.4.6-1.6 1.6h3c0-1-.6-1.6-1.4-1.6m3.3 3h-4.9c.1 1.2.8 1.9 1.7 1.9.8 0 1.3-.5 1.5-1.3l1.8 1c-.5 1-1.7 1.8-3.3 1.8-2.1 0-3.7-1.5-3.7-4s1.6-4 3.6-4 3.4 1.5 3.4 3.5c0 .7-.1 1.1-.1 1.1m-10.9 3.2h2.2V10.9h-2.2v4.2H13v-4.2h-2.2v10.5H13V17h4.2v4.4z"/></svg><svg viewBox="0 0 78 28" style="enable-background:new 0 0 78 28" xml:space="preserve" fill="currentColor" id="helsinki-ru" xmlns="http://www.w3.org/2000/svg"><path d="M26.7 16.7v-4.9h-1.5V14c0 1.5-.4 2.5-1.6 2.8l-1.5-1.1c1.1-.2 1.5-.6 1.5-1.9v-3.3h4.7v6.1h-1.6zm30.7-6H59v1.6c0 .5-.1 1.2-.1 1.2s.3-.6.7-1.2l1.1-1.7h1.8L60.7 13l2 3.5H61l-1.2-2.2-.8 1v1.2h-1.6v-5.8zm-3.5 6h1.6v-6h-1.6v2.2h-2.2v-2.2h-1.6v6h1.6v-2.3h2.2v2.3zm-15.9-3c0 1.1.3 1.8 1.2 1.8.7 0 1-.7 1-1.4l1.5.8c-.2 1-1.1 1.9-2.6 1.9-1.6 0-2.8-1.2-2.8-3.1 0-1.9 1.2-3.1 2.8-3.1 1.5 0 2.4 1 2.6 1.9l-1.5.8c0-.8-.3-1.4-1-1.4-.9 0-1.2.7-1.2 1.8M19.9 13h-2.4c.1-.8.6-1.3 1.2-1.3.8.1 1.2.6 1.2 1.3m1.6.3c0-1.6-1.1-2.8-2.7-2.8s-2.9 1.2-2.9 3.1c0 2 1.2 3.1 2.9 3.1 1.2 0 2.1-.7 2.6-1.4l-1.4-.7c-.1.6-.5 1-1.2 1s-1.2-.5-1.3-1.4h3.9c0-.1.1-.4.1-.9m-9.6.1s-.3.6-.6 1.1l-1.2 2.2H8.3l2.4-4.2-2.2-4h1.9l1 1.9c.3.5.5 1.1.5 1.1s.3-.6.6-1.1l1-1.9h1.8l-2.2 3.9 2.4 4.3h-1.9l-1.2-2.2c-.2-.5-.5-1.1-.5-1.1M1.7 1.7v16.1c0 3.1 2.5 5.6 5.6 5.6h26c2.1 0 4 .8 5.6 2.1 1.5-1.4 3.5-2.1 5.6-2.1h26.1c3.1 0 5.7-2.5 5.7-5.6V1.7H1.7zM38.9 28l-.9-.9c-1.2-1.2-2.9-1.9-4.7-1.9h-26c-4.1 0-7.4-3.3-7.4-7.3V0h78v17.9c0 4-3.3 7.3-7.4 7.3h-26c-1.8 0-3.4.7-4.7 1.9l-.9.9z"/><path d="m46.4 10.7-1.3 2.8c-.2.4-.5 1.2-.5 1.2s.1-.8.1-1.4v-2.6h-1.5v6H45l1.5-2.8c.2-.4.5-1.2.5-1.2s-.1.8-.1 1.4v2.6h1.5v-6h-2zM67.2 10.7l-1.3 2.8c-.2.4-.5 1.2-.5 1.2s.1-.8.1-1.4v-2.6H64v6h1.9l1.5-2.8c.2-.4.5-1.2.5-1.2s-.1.8-.1 1.4v2.6h1.5v-6h-2.1zM31.6 13.9h1.6c.1 0 .3.1.4.1.1.1.2.1.2.2s.1.2.1.4 0 .3-.1.4c-.1.1-.1.2-.2.2-.1.1-.2.1-.3.1H31.6v-1.4zM30 16.7h3.5c.1 0 .3 0 .4-.1.2 0 .3-.1.5-.2s.3-.2.4-.4c.1-.1.2-.3.3-.6.1-.2.1-.5.1-.8 0-.3-.1-.6-.2-.9-.1-.3-.3-.5-.5-.6-.2-.2-.4-.3-.7-.4-.3-.1-.6-.1-1-.1h-1.5v-2.2H30v6.3z"/></svg><svg viewBox="0 0 78 28" style="enable-background:new 0 0 78 28" xml:space="preserve" fill="currentColor" id="helsinki-sv" xmlns="http://www.w3.org/2000/svg"><path d="M39.9 27.1c1.2-1.2 2.8-1.9 4.5-1.9h26.4c4 0 7.2-3.3 7.2-7.3V0H0v17.9c0 4 3.2 7.3 7.2 7.3h26.4c1.7 0 3.3.7 4.5 1.9l.9.9.9-.9zM76.3 1.7v16.1c0 3.1-2.5 5.6-5.5 5.6H44.4c-2 0-3.9.8-5.4 2.1-1.5-1.4-3.4-2.1-5.4-2.1H7.2c-3 0-5.5-2.5-5.5-5.6V1.7h74.6z"/><path d="M42.7 12.6c0 .9.5 1.4 1.2 1.7-.7.1-1.3.5-1.3 1.2 0 .5.4.8.8.9-.6.1-1.2.5-1.2 1.1 0 1.1 1.5 1.5 3 1.5 1.7 0 3.2-.6 3.2-2 0-1.2-.8-1.7-2.1-1.7-.6 0-1.2.1-1.7.1s-.7-.1-.7-.4c0-.3.5-.5 1.2-.5 1.4 0 2.5-.7 2.5-1.9 0-.7-.4-1.1-.7-1.4.1 0 .3.1.5.1.7 0 1-.4 1-1.1l-1.5-.9c0 .1.1.4.1.6 0 .4-.2.7-.7.7-.4 0-.7-.1-1.2-.1-1.4.1-2.4.9-2.4 2.1m.8 4.8c0-.6 1.4-.6 2.1-.6.7 0 1.3.1 1.3.5 0 .5-.6.7-1.7.7-1 0-1.7-.1-1.7-.6m.7-4.7c0-.6.4-.9 1-.9s1 .4 1 .9c0 .6-.4.9-1 .9s-1-.4-1-.9m8-3.5c.4 0 .6.4.6.7l1.4-.9c-.4-.5-1-1.1-2.1-1.1-1.3.1-2.1.8-2.1 2.2v.6h-.9V12h.9v4.7h1.6V12h1.3v-1.3h-1.3V10c0-.4.2-.8.6-.8m4.2 7.6c1.6 0 2.8-1.2 2.8-3.1s-1.2-3.1-2.8-3.1c-1.6 0-2.8 1.2-2.8 3.1s1.3 3.1 2.8 3.1m-1.1-3.1c0-1.1.4-1.8 1.2-1.8.8 0 1.2.8 1.2 1.8s-.4 1.8-1.2 1.8c-.9.1-1.2-.7-1.2-1.8m4.9 3h1.6v-3.4c0-.8.2-1.3.7-1.3.4 0 .5.4.5.8s-.1.8-.1 1l1.5-.9s.1-.3.1-.7c0-.9-.4-1.6-1.3-1.6-.7 0-1.2.5-1.5 1.1l.1-1h-1.6v6zm7.6-1.1c-.8 0-1.3-.5-1.5-1.1l-1.3.8c.5.9 1.5 1.5 2.9 1.5 1.3 0 2.3-.7 2.3-1.9 0-1.1-.8-1.5-1.7-1.8-.9-.3-1.6-.3-1.6-.8 0-.3.3-.5.8-.5.6 0 1.1.4 1.2.9l1.4-.8c-.4-.8-1.5-1.4-2.7-1.4-1.2 0-2.3.7-2.3 1.8s1.1 1.6 2 1.8c.7.2 1.4.3 1.4.8-.1.5-.4.7-.9.7M41.3 12.9c0-1.5-.7-2.3-1.8-2.3-1 0-1.5.6-1.7 1.1l.1-1h-1.6v6h1.6v-3.5c0-.7.4-1.2 1-1.2s.9.4.9 1.2v3.5h1.6v-3.8zm-6.8-3.8c0 .5-.4.9-.9.9s-.9-.4-.9-.9.4-.9.9-.9.9.3.9.9m-1.7 7.6h1.6v-6h-1.6v6zm-3-1.7c0-.5-.6-.6-1.4-.8-.9-.2-2-.7-2-1.8s1-1.8 2.3-1.8c1.2 0 2.2.6 2.7 1.4l-1.4.8c-.1-.5-.6-.9-1.2-.9-.4 0-.8.2-.8.5 0 .4.8.5 1.6.8.9.3 1.7.7 1.7 1.8 0 1.2-1.1 1.9-2.3 1.9-1.4 0-2.4-.6-2.9-1.5l1.4-.8c.2.7.7 1.1 1.5 1.1.5-.1.8-.3.8-.7m-5.4-6.8h-1.6V15c0 .6.1 1.1.4 1.3s.7.4 1.2.4c.2 0 .4 0 .6-.1.2 0 .4-.1.5-.2l.1-1.1c-.1 0-.2.1-.3.1H25c-.2 0-.3-.1-.4-.2-.1-.1-.1-.3-.1-.6V8.2zm-5.5 3.6c-.6 0-1.1.4-1.2 1.3H20c0-.8-.5-1.3-1.1-1.3m2.5 2.4h-3.8c.1 1 .6 1.4 1.3 1.4.6 0 1-.4 1.1-1l1.4.8c-.4.8-1.3 1.4-2.5 1.4-1.6 0-2.8-1.2-2.8-3.1 0-1.9 1.2-3.1 2.8-3.1 1.6 0 2.6 1.1 2.6 2.8 0 .4-.1.8-.1.8m-8.3 2.5h1.7V8.5h-1.7v3.2H9.9V8.5H8.2v8.2h1.7v-3.4h3.2v3.4z"/></svg><svg data-name="Layer 1" fill="currentColor" viewBox="0 0 101.21 121.56" id="hero-arrow-desktop" xmlns="http://www.w3.org/2000/svg"><path d="M89.98 54.65 57.75 91.09V0h-15v90.2l-31.6-35.09L0 65.15l50.81 56.41 50.4-56.97-11.23-9.94z"/></svg><svg data-name="Layer 1" fill="currentColor" viewBox="0 0 87.05 94.67" id="hero-arrow-mobile" xmlns="http://www.w3.org/2000/svg"><path d="M79.97 44.09 48.75 75.43V0h-10v75.75L7.02 44.46 0 51.58l43.7 43.09 43.35-43.52-7.08-7.06z"/></svg><svg viewBox="0 0 24 24" id="info" xmlns="http://www.w3.org/2000/svg"><g fill="none" fill-rule="evenodd"><path d="M0 0h24v24H0z"/><path d="M12 2c5.523 0 10 4.477 10 10s-4.477 10-10 10S2 17.523 2 12 6.477 2 12 2zm0 2a8 8 0 1 0 0 16 8 8 0 0 0 0-16zm1 6v6.5h2V18H9v-1.5h2v-5H9V10h4zm-1.187-4a1.312 1.312 0 1 1 0 2.625 1.312 1.312 0 0 1 0-2.625z" fill="currentColor"/></g></svg><svg viewBox="0 0 24 24" id="link-external" xmlns="http://www.w3.org/2000/svg"><g fill="none" fill-rule="evenodd"><path d="M0 0h24v24H0z"/><path fill="currentColor" d="M18 6v12h-2V9.418l-8.586 8.587L6 16.591 14.589 8H6V6z"/></g></svg><svg viewBox="0 0 24 24" id="mailto" xmlns="http://www.w3.org/2000/svg"><g fill="none" fill-rule="evenodd"><path d="M0 0h24v24H0z"/><path d="M19.002 6.399V17.6H4.998V6.4h14.004Zm-5.505 6.606L12 14.337l-1.498-1.332-3.728 3.196h10.451l-3.728-3.196Zm4.104-3.647-3.047 2.709 3.047 2.612V9.358Zm-11.202 0v5.32l3.047-2.611-3.047-2.709Zm10.847-1.56H6.752L12 12.464 17.246 7.8Z" fill="currentColor" fill-rule="nonzero"/></g></svg><svg viewBox="0 0 24 24" id="tel" xmlns="http://www.w3.org/2000/svg"><g fill="none" fill-rule="evenodd"><path d="M0 0h24v24H0z"/><path d="m8.251 4.749.116.09 3.155 3.151c.472.472.491 1.079.133 1.589l-.09.115-.043.047-.785.785.007.028c.092.376.357.79.847 1.318l.172.18.092.093c.601.601 1.062.94 1.471 1.077l.149.041.785-.784.047-.043c.494-.416 1.102-.46 1.593-.058l.111.1 3.109 3.11.043.046c.416.494.46 1.102.058 1.594l-.101.11-1.408 1.407c-2.006 1.82-5.986.174-9.32-3.13-3.23-3.2-4.888-7.128-3.255-9.185l.144-.167 1.381-1.381c.473-.472 1.079-.491 1.589-.133Zm-.715 1.804-.936.935-.053.06c-.79.995.247 3.846 2.882 6.557l.23.232c2.83 2.803 5.72 3.89 6.703 3.197l.078-.062 1.01-1.008-2.314-2.317-1.13 1.131-1.012-.28-.241-.07c-.655-.22-1.256-.634-1.945-1.29l-.233-.227-.114-.116-.188-.197c-.61-.657-1.012-1.252-1.222-1.924l-.064-.226-.223-.995 1.089-1.087-2.317-2.313Z" fill="currentColor" fill-rule="nonzero"/></g></svg><svg viewBox="0 0 100 100" xml:space="preserve" id="test" xmlns="http://www.w3.org/2000/svg"><path d="M50 10c22.1 0 40 17.9 40 40S72.1 90 50 90 10 72.1 10 50s17.9-40 40-40m0-10C22.4 0 0 22.4 0 50s22.4 50 50 50 50-22.4 50-50S77.6 0 50 0z"/><path d="M63.1 72.9c-.7.6-1.8 1.3-3.4 2.1-1.6.8-3.6 1.2-5.8 1.2-3.3 0-6-.9-8-2.7-2-1.8-3-4.7-3-8.8V45.5h-6.1v-8.1H43v-7.7l10.6-5.9v13.6h8.6v8.1h-8.6v18.3c0 1.5.2 2.5.7 3.1.5.6 1.1.9 2 .9.8 0 1.4-.3 1.9-.8.5-.6.8-1.1 1.1-1.6l3.8 7.5z"/></svg></svg>